<?xml version="1.0" encoding="utf-8"?>
<!-- Generator: Adobe Illustrator 16.0.0, SVG Export Plug-In . SVG Version: 6.00 Build 0)  -->
<!DOCTYPE svg PUBLIC "-//W3C//DTD SVG 1.1//EN" "http://www.w3.org/Graphics/SVG/1.1/DTD/svg11.dtd">
<svg version="1.1" id="Capa_1" xmlns="http://www.w3.org/2000/svg" xmlns:xlink="http://www.w3.org/1999/xlink" x="0px" y="0px"
	 width="512px" height="512px" viewBox="0 0 512 512" enable-background="new 0 0 512 512" xml:space="preserve">
<g>
	<g>
		<path fill="#FFFFFF" d="M256.004,512C397.163,512,512,397.156,512,255.996C511.999,114.837,397.163,0,256.004,0
			C114.844,0,0.007,114.837,0.007,256.002S114.844,512,256.004,512z M256.004,27.22c126.15,0,228.775,102.632,228.775,228.783
			S382.155,484.778,256.004,484.778c-126.15,0-228.777-102.63-228.777-228.776C27.227,129.857,129.853,27.22,256.004,27.22z"/>
		<g>
			<path fill="#FFFFFF" d="M247.497,87.252h-73.784c-47.742,0-86.457,38.714-86.457,86.457V338.29
				c0,47.742,38.714,86.457,86.457,86.457h73.784c1.389,0,2.604-1.041,2.604-2.432V89.682
				C250.1,88.294,248.885,87.252,247.497,87.252z M222.844,397.665h-49.131c-15.797,0-30.729-6.251-41.839-17.536
				c-11.284-11.11-17.536-26.042-17.536-41.839V173.709c0-15.799,6.251-30.729,17.536-41.84c11.11-11.284,26.042-17.36,41.839-17.36
				h49.131V397.665z"/>
			<path fill="#FFFFFF" d="M139.686,188.465c0,17.535,14.237,31.771,31.771,31.771s31.77-14.236,31.77-31.771
				s-14.236-31.77-31.77-31.77S139.686,170.931,139.686,188.465"/>
			<path fill="#FFFFFF" d="M338.294,87.252h-52.256c-1.216,0-2.256,0.868-2.256,2.083v332.981c0,1.391,1.04,2.432,2.43,2.432h52.082
				c47.742,0,86.457-38.715,86.457-86.457V173.709C424.751,125.966,386.036,87.252,338.294,87.252z M350.621,307.041
				c-18.924,0-34.2-15.278-34.2-34.202c0-18.749,15.276-34.026,34.2-34.026c18.749,0,34.026,15.277,34.026,34.026
				C384.648,291.763,369.37,307.041,350.621,307.041z"/>
		</g>
	</g>
</g>
</svg>
