<svg width="429" height="429" viewBox="0 0 429 429" version="1.1" xmlns="http://www.w3.org/2000/svg" xmlns:xlink="http://www.w3.org/1999/xlink" style="display:block;margin-left:auto;margin-right:auto"><defs><style type="text/css">.g2_1{fill:#E60012}.g3_1{fill:#FFFFFF}.g1_1{fill:#E6E6E6}</style></defs><path d="M0,0 L0,429 L429,429 L429,0 Z" fill="#FFFFFF"/><path d="M-90,646l1385,0l0,-865l-1385,0l0,865Z" class="g1_1"/><path d="M429,429L-3,429L-3,-3l432,0l0,432Z" class="g2_1"/><path d="M303.6,302.4l-5.3,0l0,-14.1l5.3,0c3.8,0,7,3.1,7,7c0,3.9,-3.2,7.1,-7,7.1m-0.3,-19.2l-10,0l0,24.3l10,0c6.9,0,12.5,-5.5,12.5,-12.2c0,-6.7,-5.6,-12.1,-12.5,-12.1M194.9,237.9l-28.3,0c-9.1,0,-17.7,-3.6,-24.1,-10.1c-6.5,-6.4,-10.1,-15,-10.1,-24.1l0,-94.8c0,-9.1,3.6,-17.7,10.1,-24.1c6.4,-6.5,15,-10,24.1,-10l28.3,0ZM209.1,59.1l-42.5,0c-27.5,0,-49.8,22.3,-49.8,49.8l0,94.8c0,27.5,22.3,49.8,49.8,49.8l42.5,0c0.8,0,1.5,-0.6,1.5,-1.4l0,-191.6c0,-0.8,-0.7,-1.4,-1.5,-1.4m63.6,248.4l0,-24.3l-4.9,0l0,15.9L255.9,283.2l-4.9,0l0,24.3l4.9,0l0,-16.3l12,16.3ZM214,329.6l14.7,0l0,36.1l9.8,0l0,-36.1l14.4,0l0,-9.7l-38.9,0Zm70.7,-1c5.2,0,10,2.7,12.6,7.1l7.4,-6.5c-4.5,-6.8,-12.1,-10.8,-20.3,-10.8C271,318.4,260,329.3,260,342.8c0,13.5,11,24.5,24.4,24.5c8.2,0,15.8,-4,20.3,-10.8L297.3,350c-2.6,4.3,-7.4,7.1,-12.6,7.1c-8,0,-14.5,-6.4,-14.5,-14.3c0,-7.8,6.5,-14.2,14.5,-14.2m85.1,31.2l-1.5,4.3l-1.5,-4.3l-1.6,0l0,5.8l1.1,0l0,-4.5l1.5,4.5l1,0l1.6,-4.5l0,4.5l1,0l0,-5.8ZM359.4,361l1.9,0l0,4.7l1.2,0l0,-4.7l1.8,0l0,-1.2l-4.9,0ZM346.1,337.9l-21.4,0l0,-18l-9.5,0l0,45.8l9.5,0l0,-18.3l21.4,0l0,18.3l9.5,0l0,-45.8l-9.5,0Zm-1.7,-35c-4.1,0,-7.5,-3.4,-7.5,-7.6c0,-4.2,3.4,-7.5,7.5,-7.5c4.2,0,7.6,3.3,7.6,7.5c0,4.2,-3.4,7.6,-7.6,7.6m0,-20.5c-7.1,0,-12.9,5.8,-12.9,12.9c0,7.2,5.8,13,12.9,13c7.2,0,13,-5.8,13,-13c0,-7.1,-5.8,-12.9,-13,-12.9M230.8,303l-13.9,0l0,-5.7l12.9,0l0,-4.4l-12.9,0l0,-5.3l13.9,0l0,-4.4l-18.9,0l0,24.3l18.9,-0.1ZM147,117.4c0,10.1,8.2,18.3,18.3,18.3c10.1,0,18.3,-8.2,18.3,-18.3c0,-10.1,-8.2,-18.3,-18.3,-18.3c-10.1,0,-18.3,8.2,-18.3,18.3M90,337.9l-0.3,0c-5.6,-1,-10.4,-1.9,-10.8,-5.1c-0.1,-0.6,-0.1,-1.6,0.8,-2.6c1.5,-1.8,5,-2.7,10.3,-2.7c5.9,0,11.9,2.3,14,3.2l3.3,-7.9c-2.3,-1,-9.7,-3.6,-17.8,-3.6c-9.9,0,-20.4,4.9,-20.4,13.8c0,7.3,5.1,11,18.3,13.2c9.2,1.6,14.3,2.5,14.2,6.5c-0.1,2.2,-1.8,5.9,-12.2,5.9C81,358.6,75,355.5,73,354.3l-4.3,7.8c2.3,1.2,10,4.9,20,4.9c14.6,0,22.3,-5.1,22.3,-14.7c0,-6.8,-3.5,-11.3,-21,-14.4M75.6,291.2l12.1,16.3l4.8,0l0,-24.3l-4.9,0l0,15.9l-12,-15.9l-4.9,0l0,24.3l4.9,0Zm40.6,-8l-5.4,0l0,24.3l5.4,0l0,-24.3ZM268.5,146.4c10.8,0,19.6,8.8,19.6,19.6c0,10.9,-8.8,19.7,-19.6,19.7c-10.9,0,-19.7,-8.8,-19.7,-19.7c0,-10.8,8.8,-19.6,19.7,-19.6M231.4,253.5l30,0c27.5,0,49.8,-22.3,49.8,-49.8l0,-94.8c0,-27.5,-22.3,-49.8,-49.8,-49.8l-30.1,0c-0.7,0,-1.3,0.5,-1.3,1.2l0,191.8c0,0.8,0.6,1.4,1.4,1.4m-68.9,99.6l-9.7,-33.2l-8.2,0L135,353l-8.8,-33.1l-10,0l13,45.8l11,0l8.5,-30.2l8.5,30.2l11.1,0l13,-45.8l-10,0Zm31.7,-69.9l-20.6,0l0,5.1l7.8,0l0,19.2l5.2,0l0,-19.2l7.6,0Zm-54.8,8l12.1,16.3l4.8,0l0,-24.3l-4.9,0l0,15.9l-12,-15.9l-4.9,0l0,24.3l4.9,0Zm53.3,74.5l10.2,0l0,-45.8l-10.2,0l0,45.8Z" class="g3_1"/></svg>